<svg xmlns="http://www.w3.org/2000/svg" viewBox="0 0 382.98 111.05"><script xmlns=""/><defs><style>.cls-1,.cls-2{fill:#fafafa;}.cls-2{stroke:#fafafa;stroke-miterlimit:10;}</style></defs><g id="Layer_2" data-name="Layer 2"><g id="meteoblue_logo" data-name="meteoblue logo"><path id="letter_m" data-name="letter m" class="cls-1" d="M33.87,22.42c3.65-3.42,8-6.22,15.42-5.46a14.7,14.7,0,0,1,10.35,6.4c2.41,3.8,2.52,9.19,2.42,15.08,0,7.3,0,15.34,0,22.17H53.38c0-6-.06-14.87-.06-21.86a51.87,51.87,0,0,0-.08-5.23c-.47-4.33-3.57-7.88-8.46-7.91-6.61,0-8.44,4.9-8.79,11.77,0,7.4.13,16.46.13,23.23H27.47c0-7.24.12-15.59.12-22.92,0-1.32,0-2.59-.12-3.8-.57-6.07-6.94-10.78-13.17-7A7.26,7.26,0,0,0,12,29.26c-1.62,2-1.42,5.48-1.52,9.25-.06,2.25.11,17.91.11,22.1H1.69V30.88C1.69,23.13,9.17,17.7,16.37,17,24.26,16.14,29.87,18.7,33.87,22.42Z"/><path id="letter_e1" data-name="letter e1" class="cls-1" d="M107.24,42.36H80.34c-1.22,11.52,14,13.4,19.75,6.58a33.77,33.77,0,0,1,6.21,5.46c-5.65,8.11-22.07,8.71-29,2.07-5.45-5.24-7-15.42-5.27-24.08C73.8,23.39,80,16.11,91.25,17,103.14,17.86,108.55,28,107.24,42.36ZM87.67,25.24c-4.65.62-7.08,4.54-7.33,9.78H98.4C98.17,28.61,94.36,24.35,87.67,25.24Z"/><path id="letter_t" data-name="letter t" class="cls-1" d="M125.44,4.26v13h6.38c0,2,0,4.52,0,6.77h-6.38c0,3.83,0,9,0,14.18,0,2.6,0,5.2,0,7.65,0,2.29-.29,5.19,1.17,6.16,1.11.73,3.48.49,5.23.49v8c-8.57.71-14.55-1.73-15-8.65-.31-4.21-.09-9-.09-13.87.2-4.78.09-9.46.09-14h-4.52V17.24h4.5c0-3.9,0-9,0-13Z"/><path id="letter_e2" data-name="letter e2" class="cls-1" d="M173.47,42.36H146.56c-.82,11.47,13.85,13.48,19.76,6.58,2.19,1.69,4.52,3.26,6.21,5.46a20,20,0,0,1-15.62,6.77c-12.8,0-19.1-8.81-19.19-21.82-.08-12.16,5.71-23.73,20.13-22.39C169.43,18,174.84,28.07,173.47,42.36ZM153.9,25.24c-4.65.64-7.05,4.55-7.34,9.78h18.25C164.51,28.63,160.68,24.3,153.9,25.24Z"/><path id="letter_o" data-name="letter o" class="cls-1" d="M195.67,17.15c9.15-1.06,16,3.55,18.62,9.4,2.39,5.29,2.65,20.07-.19,25.4-6.86,12.89-26.88,11.55-32-.75-2.94-7.1-2.05-20,.38-25A16.38,16.38,0,0,1,195.67,17.15ZM190,30.88c-1.54,3.77-1.47,13.12.19,16.75,2.34,5.09,10,6.4,14.11,2.82,3.31-2.87,4.39-14.32,2.26-19.57a9,9,0,0,0-9.22-5.08C193.2,26.19,191.11,28.23,190,30.88Z"/><path id="letter_b" data-name="letter b" class="cls-1" d="M225.22,0h8.83V21.66c1.86-1.08,3.25-2.66,5.27-3.57,8.34-3.78,17.76,1.64,19.75,8.46,1.58,5.43,1.41,21.82-.94,26a18.44,18.44,0,0,1-1.5,2.26c-6.94,8.48-23.58,8.36-29.36-1.32-3.3-5.54-2.06-17-2.06-25.4V.59C225.21.68,225.22,0,225.22,0Zm12,27.09c-4.24,3.27-4.38,18-1.32,22.58s11.57,3.13,13.73-1c1.61-3,1.64-9.51,1.32-13.92-.46-6.28-3-9.6-9.41-9A7.56,7.56,0,0,0,237.25,27.12Z"/><path id="letter_l" data-name="letter l" class="cls-1" d="M269.43,0h8.83c0,11.8,0,26,0,39.32V49.57a3.08,3.08,0,0,0,.7,2.19c1.23,1.13,4.12.57,5.55.76v8.09a30.66,30.66,0,0,1-5.06,0c-5.73-.47-9.08-2.46-10-8.7a3,3,0,0,1,0-.52c0-7.32.08-16.55.08-25.25V5.1C269.42,3.56,269.43-.35,269.43,0Z"/><path id="letter_u" data-name="letter u" class="cls-1" d="M291.62,17.33h8.47c0,7.18,0,17.2,0,24.57a29.58,29.58,0,0,0,.17,3.63,7.54,7.54,0,0,0,1.8,3.95A6,6,0,0,0,305,51.76a9.88,9.88,0,0,0,7.14.19c3.22-1.24,5.12-4.51,5.12-8.75,0-.23.05-.46.07-.69,0-7.59-.1-18.06-.1-25.16l8.84,0c-.23,3.4,0,7,0,10.53v20c0,4.63-5.4,11.12-12.68,12.9-7,1.72-15.84-1.06-19.68-6.69a11.05,11.05,0,0,1-2.38-6.26c0-8.29.12-20.77.12-30.39C291.43,17.31,291.4,17.37,291.62,17.33Z"/><path id="letter_e3" data-name="letter e3" class="cls-1" d="M370.64,42.36H343.73c-1,11.42,13.9,13.48,19.76,6.58A63.6,63.6,0,0,1,369.7,54c-3.41,4.46-8.33,7.11-15.43,7.15-11.6.07-18.38-7.55-19.19-18.62-1-13.77,4.48-26.92,19.76-25.59C366.57,18,372.05,28,370.64,42.36ZM351.12,25.25c-4.64.64-7.05,4.55-7.33,9.79H362C361.73,28.65,357.91,24.32,351.12,25.25Z"/><path id="registered_circle" data-name="registered circle" class="cls-1" d="M377.48,5a5.56,5.56,0,0,1,5.36,3.71c.51,3-.4,4.8-1.77,6-3.28,2.94-9.3.91-9.45-4A5.64,5.64,0,0,1,377.48,5Zm-4.31,5.4c.06,4.31,4,5.48,6.54,3.87a4.39,4.39,0,0,0,1.84-4.62c-.36-2.36-2.48-3.82-5.27-3.29A4.14,4.14,0,0,0,373.17,10.37Z"/><path id="registered_letter_r" data-name="registered letter r" class="cls-1" d="M378.55,7.79c1.16.4,1.89,1.85.18,2.77a4.54,4.54,0,0,1,1.32,2.83h-1.51a5,5,0,0,0-.75-2.07H376.5a12,12,0,0,1,0,2.07h-1.32V7.8A7.64,7.64,0,0,1,378.55,7.79Zm-1.91,1c-.29.29-.17.69-.17,1.41,1,0,2,.15,1.88-.94A1.37,1.37,0,0,0,376.64,8.78Z"/><path id="letter_slogan_w" data-name="letter slogan w" class="cls-1" d="M0,85.3H3.45c1,4.94,2.6,9.29,3.44,14.4C8.53,95,9.83,89.93,11.56,85.3h2.63a147.61,147.61,0,0,1,4.26,14.4c1.35-4.81,2.54-9.76,4.06-14.4h3.24c-1.91,5.86-3.85,11.7-5.68,17.64H17c-1.48-4.53-3-9-4.26-13.78-1.3,4.77-2.91,9.25-4.46,13.78h-3C3.58,97,1.73,91.21,0,85.3Z"/><path id="letter_slogan_e" data-name="letter slogan e" class="cls-1" d="M43.18,94.83H30.82c-.39,5.66,6.19,7,10.94,5.07.2.82.42,1.61.61,2.43-8,2.91-15.55-.23-14.6-9.52C28.92,81.63,45.43,82.59,43.18,94.83ZM30.82,92.4h9.32C40.83,85.32,30.5,86.42,30.82,92.4Z"/><path id="letter_slogan_a" data-name="letter slogan a" class="cls-1" d="M60.42,102.94h-3c.14-.88-.35-1.14-.21-2-2.4,3.36-10.27,3.37-11-1.83-.7-5.49,4.62-7.5,10.55-7.3.87-5.33-5.63-5-8.52-3.24a10.91,10.91,0,0,1-.61-1.83C51.77,83.5,59.17,84.33,60,90.17,60.58,94.12,59.48,98.65,60.42,102.94ZM50.08,95.85c-1.37,1.93-.36,4.67,1.62,5.06,3.43.69,6-2.19,5.27-6.89C53.91,94.16,51.25,94.19,50.08,95.85Z"/><path id="letter_slogan_t1" data-name="letter slogan t1" class="cls-1" d="M69.53,80.9c0,1.65,0,3,0,4.4H74.2v2.53H69.55c0,2.55,0,6.73,0,9.65a6.29,6.29,0,0,0,.8,2.53c.67.87,1.82.55,3.61.55,0,.59.06,1.54.06,2.38-3.31.54-5.93.15-7-1.89-.88-2.46-.77-8.73-.7-13.26H63.66V85.3H66.3v-3C67.42,81.75,69.53,80.9,69.53,80.9Z"/><path id="letter_slogan_h" data-name="letter slogan h" class="cls-1" d="M81.53,77.07V87.82A7.83,7.83,0,0,1,85,85.18a6.33,6.33,0,0,1,5.49.61c4.34,2.7,2.42,10.53,2.84,17.23H90l0-.39c0-2.93.08-6.47.08-9.43-.16-2.53-.78-4.6-2.68-5.39-2.74-.38-4.49.51-5.3,2-.65,1-.5,2.1-.6,3.43,0,3,0,6.68,0,9.74H78.29V77.07Z"/><path id="letter_slogan_e2" data-name="letter slogan e2" class="cls-1" d="M113.33,94.83H101c-.39,5.66,6.19,7,10.94,5.07.2.82.42,1.61.61,2.43-8,2.91-15.55-.23-14.6-9.52C99.07,81.63,115.58,82.59,113.33,94.83ZM101,92.4h9.32C111,85.32,100.64,86.42,101,92.4Z"/><path id="letter_slogan_r" data-name="letter slogan r" class="cls-1" d="M126.51,84.9v3.24c-4.71-.76-5.81,3.19-5.51,7.76,0,2.35,0,4.83,0,7h-3.28c0-5.88,0-12,0-17.64l2.9,0v3.47C121.67,86.54,123,84.67,126.51,84.9Z"/><path id="letter_slogan_sun" data-name="letter slogan sun" class="cls-2" d="M156.36,80.59h1c0,.74,0,2.93,0,4.2a7.91,7.91,0,0,1,4.48,1.69,44.86,44.86,0,0,1,3.59-3.54,4.36,4.36,0,0,1,.85.65c-1.32,1.46-2.59,2.52-3.6,3.69,1,1.39,1.81,2.3,1.65,4.48h4.48c0,.2,0,.79,0,1h-4.34c-.32,1.7-.66,3.14-1.83,4.25a33.45,33.45,0,0,0,3.61,3.63c-.11.12-.5.49-.8.77-1.29-1.15-2.25-2.26-3.48-3.43a10.11,10.11,0,0,1-4.55,1.82c0,1.3,0,3,0,4.21h-1c0-1,0-3.25,0-4.26A6.39,6.39,0,0,1,151.92,98c-.93.82-2.43,2.41-3.47,3.41a3,3,0,0,1-.84-.56c1.22-1.4,2.22-2.39,3.48-3.66-1-1.53-1.66-2.48-1.62-4.46l-4.26,0c0-.45,0-.84,0-1.11l4.16,0a6.86,6.86,0,0,1,1.87-4.4c-1-1-2.66-2.61-3.54-3.49.14-.14.38-.59.65-.86,1.25,1.24,2.41,2.23,3.72,3.53a7.81,7.81,0,0,1,4.3-1.67Zm-2.28,17.69c6.25,2.66,10.74-4,8.72-8.72a6.58,6.58,0,0,0-7.3-3.45C149.84,87.19,148.38,95.84,154.08,98.28Z"/><path id="letter_slogan_c" data-name="letter slogan c" class="cls-1" d="M199.7,85.51a21.22,21.22,0,0,1-.81,2.83c-.83-.17-1.51-.72-2-.81-7.1-1.21-9.82,6.88-6.28,11.15,1.92,1.78,5.66,2.3,8.51,1,.16,1,.5,1.8.61,2.84-7.52,2.95-13.85-1.37-14-8.11C185.56,87.21,192.26,82.53,199.7,85.51Z"/><path id="letter_slogan_l" data-name="letter slogan l" class="cls-1" d="M206.8,76.79c0,7.91,0,17.56,0,26.15h-3V76.79Z"/><path id="letter_slogan_o1" data-name="letter slogan o1" class="cls-1" d="M218,84.9c4.67-1.07,8.05.76,9.73,3.24,3.75,5.54.14,14.31-5.47,15.21C209.66,105.34,208.52,87.05,218,84.9Zm3.65,15.61c5.51-1.17,5.93-15.11-2.84-12.77C212.73,89.35,214.15,102.08,221.6,100.51Z"/><path id="letter_slogan_s" data-name="letter slogan s" class="cls-1" d="M243.09,85.51c-.31,1-.54,1.78-.81,2.83-1.77-1.12-6.72-1.6-6.69,1.22,0,2.56,5.44,2.85,7.09,4.87a6.79,6.79,0,0,1,1,3.85c-.28,5-6.45,6.37-11.56,4.06.16-1.19.37-1.87.61-3,2.18,2,9.2,1.92,7.5-2.23-1.12-2.72-8.83-1.87-7.7-8.31C233.22,84.87,238.47,83.59,243.09,85.51Z"/><path id="letter_slogan_e3" data-name="letter slogan e3" class="cls-1" d="M262.76,94.83H250.18a5.13,5.13,0,0,0,3.2,5,9.65,9.65,0,0,0,7.49-.15c.26.74.39,1.64.72,2.84-2.95.67-5.21,1.18-7.76.81-10-1.48-8.92-20.49,3.25-18.65,3.4.51,5.42,4,5.68,8.51A14.49,14.49,0,0,1,262.76,94.83ZM250.18,92h9.33C259.81,85.36,250.25,86.39,250.18,92Z"/><path id="letter_slogan_t2" data-name="letter slogan t2" class="cls-1" d="M279.32,80.82c0,1.64,0,3,0,4.4H284v2.53h-4.65c0,2.55,0,6.73,0,9.65a6.34,6.34,0,0,0,.8,2.52c.68.87,1.83.55,3.62.55,0,.6.06,1.55.06,2.39-3.32.53-5.94.14-7-1.89-.87-2.46-.77-8.73-.7-13.26h-2.64V85.22h2.64v-3C277.21,81.67,279.32,80.82,279.32,80.82Z"/><path id="letter_slogan_o2" data-name="letter slogan o2" class="cls-1" d="M293.17,84.9c14.06-3.21,14.8,20.66.4,18.45C284.56,102,284.65,86.84,293.17,84.9Zm3.64,15.61c5.64-1.26,5.77-15-2.83-12.77C287.59,89.39,289.34,102.18,296.81,100.51Z"/><path id="letter_slogan_y" data-name="letter slogan y" class="cls-1" d="M314.66,85.1h3.65c1.58,4.46,4.72,13,5.06,13.38,1.26-4.62,3-8.76,4.26-13.38h3.65c-1.23,3.27-2.44,6.29-3.87,9.73-1.61,4.29-2.53,7.43-5.22,11.87-1.9,2.56-3,3.6-5.91,4.35-.3-1.19-.48-1.79-.81-3.24,2.09-.46,6.17-3,5.67-6.08-.33-2-2-5.39-2.84-7.51C316.94,90.89,315.26,87.74,314.66,85.1Z"/><path id="letter_slogan_o3" data-name="letter slogan o3" class="cls-1" d="M349.93,92c.09,7.47-2.85,12.54-10.54,11.36-9.44-1.45-9.47-20.8,4.06-18.65C347.11,85.28,348.84,88.4,349.93,92Zm-9.73,8.52c8.59,1.57,8.75-15.14-.4-12.77C334.17,89.19,334.76,99.52,340.2,100.51Z"/><path id="letter_slogan_u" data-name="letter slogan u" class="cls-1" d="M354.39,85.1h3.25c.34,3.43-.46,8.18,0,11.35a6.5,6.5,0,0,0,1.22,3c2.3,2.16,6.26.4,7.29-2.24V85.1h3.25v17.84h-2.84c-.05-1,.26-2.28-.61-2.43-1.59,3.85-8.37,3.55-10.34.4a9,9,0,0,1-1-3.77c-.34-3.67-.24-8.19-.24-11.43Z"/></g></g><script xmlns=""/></svg>
